<?xml version="1.0" encoding="UTF-8"?>
<svg width="1200pt" height="1200pt" version="1.1" viewBox="0 0 1200 1200" xmlns="http://www.w3.org/2000/svg">
	<path fill="#fff" d="m1131.9 1008.5-497.33-861.39c-15.395-26.629-53.867-26.688-69.277 0l-499.87 865.79c-15.383 26.652 3.8516 59.988 34.633 59.988h999.76 0.38281c35.305 0 50.496-39.945 31.703-64.379zm-531.97-761.43 172.5 298.75c-116.46-56.242-227.03-56.977-344.99 0zm0 336.29c147.71 0 270.13 121.7 285.52 159.96-15.406 38.242-137.86 159.96-285.52 159.96-147.64 0-270.1-121.73-285.5-159.96 15.387-38.258 137.83-159.96 285.5-159.96zm-430.61 409.54 100.37-173.84c174.78 218.84 485.72 218.84 660.49 0l100.37 173.84zm430.61-102.39c81.887 0 148.49-66.035 148.49-147.19s-66.602-147.19-148.49-147.19c-81.852 0-148.44 66.035-148.44 147.19 0.003906 81.156 66.578 147.19 148.44 147.19zm0-214.39c37.777 0 68.496 30.156 68.496 67.211 0 37.066-30.73 67.211-68.496 67.211-37.754 0-68.461-30.145-68.461-67.211 0.003906-37.066 30.711-67.211 68.461-67.211z" />
</svg>
