<?xml version="1.0" encoding="UTF-8" standalone="no"?>
<svg viewBox="0 0 512 512" width="512" height="512" xmlns="http://www.w3.org/2000/svg">
	<path id="gcs-sheet" fill="#fff" d="M 504,256 C 504,393 393,504 256,504 119,504 8,393 8,256 8,119 119,8 256,8 393,8 504,119 504,256 Z M 273,369.9 408.5,234.4 c 9.4,-9.4 9.4,-24.6 0,-33.9 l -17,-17 c -9.4,-9.4 -24.6,-9.4 -33.9,0 L 256,285.1 154.4,183.5 c -9.4,-9.4 -24.6,-9.4 -33.9,0 l -17,17 c -9.4,9.4 -9.4,24.6 0,33.9 L 239,369.9 c 9.4,9.4 24.6,9.4 34,0 z" />
</svg>
