<?xml version="1.0" encoding="UTF-8" standalone="no"?>
<svg viewBox="0 0 512 512" width="512" height="512" xmlns="http://www.w3.org/2000/svg" >
	<path id="gcs-trait" fill="currentColor" d="M79.625 22.03c-16.694.274-31.01 5.33-41.22 15.658C5.743 70.735 27.53 145.313 87.22 204.313c39.992 39.53 91.568 45.025 125.03 56.593-38.19 35.214-80.874 67.594-130.438 99.28l61.594 60.876c33.267-53.395 68.052-99.412 106.406-140.593 66.466 44.55 113.05 126.476 157.594 206.967l85.5-86.5c-82.206-44.252-164.58-88.96-209.25-154.687 41.214-39.214 86.72-74.14 138.656-107.344L360.72 78.03c-30.47 48.903-61.926 91.685-96.845 130.564-11.704-33.438-18.262-84.475-58.28-124.032C164.556 44 116.35 21.43 79.624 22.032zm16.97 47.064c20.94.415 50.89 16.01 77.436 42.25 36.934 36.505 53.305 79.782 36.595 96.687-16.71 16.907-60.194 1.037-97.125-35.468C76.57 136.06 60.165 92.75 76.875 75.844c4.7-4.755 11.525-6.913 19.72-6.75z" />
	<path id="gcs-trait-modifier" fill="currentColor" d="M321.375 15.313 262.72 73.906l25.78 6.906-15.563 58.063a115.75 115.75 0 0 0-16.25-1.125c-.887.003-1.77.04-2.656.063l21.97 45.75 42.25-28.407a115.69 115.69 0 0 0-20.03-9.875l15.467-57.718 28.657 7.657-20.97-79.907zM133.25 40.063l-.094 82.906 23.125-13.345 30.064 52.063a116.984 116.984 0 0 0-14.125 12.687l50.06 16.438 9.064-50.157a117.56 117.56 0 0 0-22.594 7.625l-29.875-51.718 25.688-14.812-71.313-41.688zm255.28 90.593 13.345 23.094-52.063 30.063c-3.8-5.002-8.01-9.707-12.593-14.063l-16.126 48.156 49.28 8.938a117.279 117.279 0 0 0-7.155-20.594l51.717-29.875 14.813 25.656 41.688-71.31-82.907-.064zm-290.78 38.5-79.906 20.97 58.562 58.655L83.312 223l58.063 15.563a115.444 115.444 0 0 0-1 20.156l47.53-22.814-29.843-43.25a115.706 115.706 0 0 0-10.218 20.625l-57.78-15.468 7.686-28.656zm275.875 81.28L328.5 272.813l28.313 42.125a116.05 116.05 0 0 0 8.28-16.437l57.938 15.53-6.905 25.783 80.063-21.532-58.72-58.092-7.687 28.656-57.592-15.438c1.27-7.706 1.707-15.387 1.437-22.97zm-230.28 30.283c1.5 6.44 3.516 12.72 6.06 18.78l-52.093 30.094L83.97 306.5l-41.376 71.813 82.594-.438-14.813-25.656 51.78-29.908a117.454 117.454 0 0 0 15.907 18.032l17.282-49.53-52-10.095zM294 316.75l-9.22 51.03a116.57 116.57 0 0 0 17.25-5.686l30.095 52.094L309 427.53l71.844 41.408-.438-82.625-25.687 14.843-29.876-51.75a116.759 116.759 0 0 0 17.844-15.687L294 316.75zM240.25 324l-44.125 30.03A115.392 115.392 0 0 0 213 362.563L197.47 420.5l-25.782-6.906 21.53 80.062 58.095-58.72-28.625-7.686 15.437-57.625a116.068 116.068 0 0 0 24.72 1.406L240.25 324z" />
	<path id="gcs-equipment" fill="currentColor" d="M240.094 19.594c-56.69.364-110.882 29.054-151.594 72.344-53.428 56.81-81.948 137.907-61.03 210.093 16.33-8.797 32.757-15.987 48.936-21.374-6.327-123.16 89.247-210.922 200.03-210.344 4.255-13.365 10.268-27.308 18.127-41.874-16.323-5.43-32.736-8.36-48.97-8.782-1.833-.047-3.67-.074-5.5-.062zM271.28 88.97c-97.556 1.745-179.913 77.1-176.373 186.31 10.986-2.73 21.788-4.582 32.28-5.436 14.59-1.187 28.69-.463 41.783 2.437L278.312 162.94a114.81 114.81 0 0 1-9.344-38.75c-.716-11.256.14-22.983 2.592-35.22-.093.002-.187 0-.28 0zm60.845 60.718-16.875 16.875L345.75 197l16.813-16.813-30.438-30.5zm-37.125 23L175.625 292.063l44.625 44.562 119.313-119.313L295 172.688zm189.875 46.093c-14.466 7.808-28.318 13.807-41.594 18.064.75 111.013-87.243 206.8-210.686 200.28-5.39 16.104-12.552 32.462-21.313 48.72 72.19 20.922 153.313-7.6 210.126-61.03 57.045-53.65 88.516-130.72 63.47-206.033zm-136 15.657L240.687 342.625c3.23 13.563 4.086 28.245 2.844 43.47-.862 10.58-2.752 21.476-5.53 32.56 109.585 3.718 185.128-79.008 186.594-176.905-12.342 2.506-24.16 3.403-35.5 2.688-14.287-.9-27.698-4.347-40.22-10zM169.5 312.313 20.094 461.72V494H48.75l151.188-151.188-30.438-30.5z" />
	<path id="gcs-equipment-modifier" fill="currentColor" d="m265.344 17.5-4.188 25.313a212.701 212.701 0 0 0-52.562 6.28l-9.438-25.062-55.125 20.75 9.907 26.282a215.577 215.577 0 0 0-41.5 30.876L90 83.53l-37.375 45.5L75.75 148a212.944 212.944 0 0 0-20.5 46.594l-30.063-4.97-9.593 58.095L46 252.75c-.374 17.218 1.313 34.127 4.906 50.438L22 314.063l20.75 55.125 28.625-10.782a215.542 215.542 0 0 0 29.28 41.75L81.688 423.25l45.532 37.344 18.343-22.344c14.386 9.118 30.04 16.577 46.687 22.125l-4.53 27.5 58.093 9.594 4.343-26.283c18.046.874 35.764-.54 52.875-4.03l8.97 23.78 55.094-20.75-8.53-22.656a215.44 215.44 0 0 0 44.655-30.78l17.936 14.72 37.344-45.533-17.188-14.093a212.909 212.909 0 0 0 23.25-50.03l21.407 3.53 9.56-58.094-21.06-3.47a212.68 212.68 0 0 0-5.408-55.06l19.844-7.47-20.75-55.125-20.187 7.594a215.574 215.574 0 0 0-32.5-44.376l14.155-17.25-45.5-37.375-14.72 17.936c-15.396-9.116-32.13-16.37-49.936-21.47l3.967-24.092-58.093-9.594zm-8.03 47.938A191.66 191.66 0 0 1 291.124 68C395.113 85.164 465.665 183.606 448.5 287.594 431.336 391.58 332.894 462.134 228.906 444.97 124.92 427.803 54.366 329.36 71.53 225.374c15.02-90.99 92.292-156.386 181.032-159.813 1.585-.06 3.16-.103 4.75-.124zm.217 18.687c-1.437.018-2.88.04-4.31.094-80.154 3.037-149.672 61.917-163.25 144.186-15.52 94.022 47.977 182.606 142 198.125 94.02 15.52 182.573-47.977 198.093-142 15.52-94.02-47.947-182.573-141.97-198.092a173.956 173.956 0 0 0-30.562-2.313zm.408 18.156c9-.116 18.145.546 27.343 2.064 84.096 13.88 140.85 93.092 126.97 177.187-13.88 84.096-93.06 140.85-177.156 126.97-25.808-4.26-49.03-14.68-68.438-29.5l109.688-133.625 52.844 43.375 58.437-71.188-108.22-88.78-101.842 35.53 71 58.25L140.78 353.938c-26.985-33.066-40.165-77.126-32.655-122.625 12.146-73.583 74.283-126.223 145.97-128.937 1.28-.048 2.557-.077 3.843-.094z" />
	<path id="gcs-note" fill="currentColor" d="M240.03 35.938c-1.08.01-2.168.062-3.25.124-8.644.502-17.16 2.8-22.5 5.97-5.336 3.167-7.018 5.72-6.81 9.593v.25l.78 28.156 59.97-1.28-.876-31.844c-.148-3.014-1.806-5.15-7.47-7.593C255.63 37.48 249.63 36.27 243.25 36a61.354 61.354 0 0 0-3.22-.063zm224.94 57.218L33.593 102.53l1.375 62 154.655 4.064-148.156 9.72-2.907 98.81 1.406.313 8.06 1.844-.843 8.22-6.906 67.47 429.533-9.283L464.219 283l-140.376-3.656 139.22-9.156-8.877-99.407-138.875-3.624 151.032-9.937-1.375-64.064zM276.31 368.562l-59.875 1.282L220 495.78h59.844l-3.53-127.217z" />
	<path id="gcs-sheet" fill="currentColor" d="M255 45.4c-24.5 0-47 11.8-63.9 33.4-16.9 21.5-27.1 52.6-27.1 86.5 0 36 12.1 67.5 31 89.5l13.5 15-19.6 4.6c-52.3 11.9-77.4 36.9-91.75 75.2-13.7 35.7-15.6 84.8-16.1 143.3H431c-.2-58.7-.5-109.3-13-145.5-13.4-39.4-37.9-64.3-94-75.4l-19.9-3.7 12.9-15.7c17.7-21.9 28.8-52.6 28.8-87.5 0-33.9-10.3-64.9-27.2-86.3-16.8-21.7-39.3-33.6-63.6-33.4z" />
	<path id="gcs-skill" fill="currentColor" d="M119.1 25v.1c-25 3.2-47.1 32-47.1 68.8 0 20.4 7.1 38.4 17.5 50.9L99.7 157 84 159.9c-13.7 2.6-23.8 9.9-32.2 21.5-8.5 11.5-14.9 27.5-19.4 45.8-8.2 33.6-9.9 74.7-10.1 110.5h44l11.9 158.4h96.3L185 337.7h41.9c0-36.2-.3-77.8-7.8-111.7-4-18.5-10.2-34.4-18.7-45.9-8.6-11.4-19.2-18.7-34.5-21l-16-2.5L160 144c10-12.5 16.7-30.2 16.7-50.1 0-39.2-24.8-68.8-52.4-68.8-2.9 0-4.7-.1-5.2-.1zM440 33c-17.2 0-31 13.77-31 31s13.8 31 31 31 31-13.77 31-31-13.8-31-31-31zM311 55v48H208v18h103v158h-55v18h55v110H208v18h103v32h80.8c-.5-2.9-.8-5.9-.8-9 0-3.1.3-6.1.8-9H329V297h62.8c-.5-2.9-.8-5.9-.8-9 0-3.1.3-6.1.8-9H329V73h62.8c-.5-2.92-.8-5.93-.8-9 0-3.07.3-6.08.8-9H311zm129 202c-17.2 0-31 13.8-31 31s13.8 31 31 31 31-13.8 31-31-13.8-31-31-31zm0 160c-17.2 0-31 13.8-31 31s13.8 31 31 31 31-13.8 31-31-13.8-31-31-31z" />
	<path id="gcs-spell" fill="currentColor" d="M103.432 17.844c-1.118.005-2.234.032-3.348.08-2.547.11-5.083.334-7.604.678-20.167 2.747-39.158 13.667-52.324 33.67-24.613 37.4 2.194 98.025 56.625 98.025.536 0 1.058-.012 1.583-.022v.704h60.565c-10.758 31.994-30.298 66.596-52.448 101.43-2.162 3.4-4.254 6.878-6.29 10.406l34.878 35.733-56.263 9.423c-32.728 85.966-27.42 182.074 48.277 182.074v-.002l9.31.066c23.83-.57 46.732-4.298 61.325-12.887 4.174-2.458 7.63-5.237 10.467-8.42h-32.446c-20.33 5.95-40.8-6.94-47.396-25.922-8.956-25.77 7.52-52.36 31.867-60.452 5.803-1.93 11.723-2.834 17.565-2.834v-.406h178.33c-.57-44.403 16.35-90.125 49.184-126 23.955-26.176 42.03-60.624 51.3-94.846l-41.225-24.932 38.272-6.906-43.37-25.807h-.005l.002-.002.002.002 52.127-8.85c-5.232-39.134-28.84-68.113-77.37-68.113C341.14 32.26 222.11 35.29 149.34 28.496c-14.888-6.763-30.547-10.723-45.908-10.652zm.464 18.703c13.137.043 27.407 3.804 41.247 10.63l.033-.07c4.667 4.735 8.542 9.737 11.68 14.985H82.92l10.574 14.78c10.608 14.83 19.803 31.99 21.09 42.024.643 5.017-.11 7.167-1.814 8.836-1.705 1.67-6.228 3.875-15.99 3.875-40.587 0-56.878-44.952-41.012-69.06C66.238 46.64 79.582 39.22 95.002 37.12c2.89-.395 5.863-.583 8.894-.573zM118.5 80.78h46.28c4.275 15.734 3.656 33.07-.544 51.51H131.52c1.9-5.027 2.268-10.574 1.6-15.77-1.527-11.913-7.405-24.065-14.62-35.74zm101.553 317.095c6.44 6.84 11.192 15.31 13.37 24.914 3.797 16.736 3.092 31.208-1.767 43.204-4.526 11.175-12.576 19.79-22.29 26h237.19c14.448 0 24.887-5.678 32.2-14.318 7.312-8.64 11.2-20.514 10.705-32.352-.186-4.473-.978-8.913-2.407-13.18l-69.91-8.205 42.017-20.528c-8.32-3.442-18.64-5.537-31.375-5.537H220.053zm-42.668.506c-1.152-.003-2.306.048-3.457.153-2.633.242-5.256.775-7.824 1.63-15.11 5.02-25.338 21.54-20.11 36.583 3.673 10.57 15.347 17.71 25.654 13.938l1.555-.57h43.354c.946-6.36.754-13.882-1.358-23.192-3.71-16.358-20.543-28.483-37.815-28.54z" />
	<path id="gcs-template" fill="currentColor" d="M250.322 18.494c-25.06 3.26-47.158 32.267-47.158 69.346 0 20.453 7.06 38.57 17.502 51.166l10.123 12.213-15.59 2.932c-13.676 2.574-23.794 9.896-32.272 21.547-8.48 11.65-14.86 27.7-19.326 46.095-8.23 33.9-9.916 75.216-10.143 111.275h44.007l11.883 159.512h96.37l10.514-159.512h41.88c-.013-36.448-.353-78.316-7.81-112.48-4.042-18.524-10.176-34.575-18.777-46.12-8.6-11.543-19.21-18.81-34.482-21.18l-15.912-2.468 10.037-12.59c9.99-12.533 16.7-30.436 16.7-50.392 0-39.537-24.776-69.268-52.352-69.268-2.915 0-4.754-.135-5.196-.078zm178.608 1.078c-31.872-.534-61.166 26.473-71.084 63.49-4.575 17.073-4.83 35.29-.817 51.108-10.96 1.307-20.99 5.173-29.772 10.996 5.563 3.58 10.537 7.906 14.906 12.814 7.998-4.296 16.716-6.28 27.084-5.492l15.816 1.2-6.615-14.415c-5.86-12.764-7.33-33.55-2.554-51.377 8.122-30.308 31.484-49.75 52.75-49.61 1.416.008 2.825.104 4.22.29l.01.002c.263.037 1.817.567 4.44 1.27 23.73 6.36 38.404 37.853 29.168 72.324-4.66 17.392-15.965 34.567-27.02 42.73l-12.954 9.565 14.73 6.502c13.063 5.765 20.835 13.86 25.885 24.348 5.05 10.487 7.12 23.674 6.846 38.674-.5 27.368-8.862 60.148-17.2 91.362l-36.864-9.88-51.232 153.712-42.69.11-1.23 18.69 57.402-.146 49.914-149.758 37.946 10.166 2.42-9.025c9.022-33.677 19.603-71.135 20.22-104.89.31-16.876-1.89-32.994-8.693-47.124-5.016-10.417-12.696-19.57-23.065-26.622 10.814-11.607 19.228-27.125 23.637-43.58 11.288-42.13-6.228-85.52-42.38-95.21l-.003-.003c-1.106-.296-3.297-1.274-6.81-1.744h-.008l-2.838-.38-.295.146c-1.09-.082-2.185-.226-3.27-.244zm-349.32.46c-4.49.056-9.02.665-13.538 1.876-.095.026-.327.068-.44.094l-.575-.574-5.76 2.377h-.002C27.32 36.99 13.11 77.635 23.69 117.12c4.574 17.073 13.46 32.977 24.845 44.67-9.328 6.978-16.34 15.908-21.053 25.99-6.507 13.924-8.973 29.83-9.11 46.6-.27 33.543 8.753 71.01 17.82 104.845l2.42 9.027 40.02-10.727 51.11 149.454 60.46.153-1.39-18.694-45.7-.116-52.446-153.37-38.73 10.378c-8.028-30.892-15.098-63.467-14.875-90.8.122-14.997 2.417-28.276 7.354-38.84 4.937-10.56 12.24-18.566 23.865-24.15l14.298-6.87-12.94-9.176c-11.456-8.122-23.12-25.39-27.896-43.215-8.66-32.315 3.867-62.596 24.653-71.188l.025-.01c.244-.1 1.86-.42 4.486-1.12h.002l.002-.003c2.966-.796 6.005-1.18 9.072-1.175 21.47.027 44.263 19.06 52.344 49.223 4.66 17.392 3.46 37.92-2.035 50.517l-6.436 14.76 16.01-1.734c13.355-1.447 23.684 1.234 32.868 7.016 4.285-4.866 9.108-9.17 14.46-12.742-.73-.536-1.464-1.062-2.212-1.572-9.55-6.512-20.777-10.598-33.283-11.522 3.562-15.46 3.09-33.105-1.318-49.56-9.878-36.864-39.338-63.538-70.77-63.14z" />
	<path id="gcs-equipment-2" fill="#fff" d= "M262.406 17.188c-27.22 8.822-54.017 28.012-72.375 55.53 17.544 47.898 17.544 57.26 0 105.157 19.92 15.463 40.304 24.76 60.782 27.47-2.063-25.563-3.63-51.13 1.125-76.69-13.625-1.483-23.374-5.995-37-13.874V82.563c35.866 19.096 61.84 18.777 98.813 0v32.22c-13.364 6.497-21.886 11.16-35.25 13.218 3.614 25.568 3.48 51.15 1.375 76.72 18.644-3.265 37.236-12.113 55.5-26.845-14.353-47.897-14.355-57.26 0-105.156-16.982-28.008-47.453-46.633-72.97-55.532zm-129.594 8.218c-25.906 110.414-27.35 215.33-27.4 330.922-18.84-1.537-37.582-5.12-56.027-11.12v28.554h69.066c8.715 35.025 6.472 70.052-1.036 105.078h28.13c-7.195-35.026-8.237-70.053-.872-105.078h68.904v-28.555c-18.49 4.942-37.256 8.552-56.097 10.46.082-114.94 2.496-223.068-24.667-330.26zm89.47 202.375c0 117.27 25.517 233.342 120.155 257.97C446.62 464.716 462.72 345.374 462.72 227.78H222.28z" />
</svg>
